<svg xmlns="http://www.w3.org/2000/svg" xmlns:xlink="http://www.w3.org/1999/xlink" width="120.672" height="132.221" viewBox="0 0 120.672 132.221">
  <defs>
    <clipPath id="clip-path">
      <rect id="Rectangle_514" data-name="Rectangle 514" width="65.664" height="118.517" fill="none"/>
    </clipPath>
    <clipPath id="clip-path-2">
      <rect id="Rectangle_515" data-name="Rectangle 515" width="4.097" height="2.209" fill="none"/>
    </clipPath>
  </defs>
  <g id="_3775326" data-name="3775326" transform="translate(13.015 2.35)">
    <g id="OBJECTS" transform="translate(-27.425 -15.169)">
      <path id="Path_2286" data-name="Path 2286" d="M220.562,354.375a57.154,57.154,0,0,1-8.379-3.573,87.237,87.237,0,0,1-16.127-9.9c-3.561-2.749-7.212-6.644-8.891-10.906-.805-2.047-1.473-5.377.019-7.29,3.626-4.656,13.319,2.824,16.018,5.414A75.888,75.888,0,0,1,220.562,354.375Z" transform="translate(-171.887 -213.327)" fill="#323a8b"/>
      <path id="Path_2287" data-name="Path 2287" d="M194.244,323.372l-.193-.112a13.75,13.75,0,0,0-1.763,6.307c-2.862-3.267-4.572-5.452-4.622-5.52l-.175.137c.05.065,1.744,2.219,4.581,5.47a10.738,10.738,0,0,0-5.2-.658l.044.218a11.051,11.051,0,0,1,5.452.777c2,2.287,4.537,5.077,7.446,8.054a28.984,28.984,0,0,0-9.9-2.518v.222a28.76,28.76,0,0,1,10.3,2.721h0c2.216,2.253,4.637,4.6,7.2,6.912-6.007-2.169-9.39-2.013-9.424-2.01v.218c.034,0,3.561-.165,9.852,2.184h0c1.994,1.788,4.057,3.545,6.2,5.211a29.471,29.471,0,0,0-7.109-1.81v.222a30.7,30.7,0,0,1,7.677,2.022c2.06,1.595,4.16,3.1,6.275,4.447l.119-.187c-2.113-1.351-4.213-2.849-6.269-4.441-1.782-3.283-.477-8.607-.462-8.66l-.2-.053c0,.053-1.248,5.034.281,8.4-2.184-1.7-4.313-3.5-6.357-5.336-1.748-4.993,1-10.182,1.027-10.232l-.193-.106c-.031.05-2.687,5.074-1.161,10.045-2.606-2.347-5.068-4.737-7.318-7.028-1.429-3.5,1.763-9.986,1.794-10.064l-.2-.1c-.131.259-3.021,6.141-1.96,9.8-2.915-2.986-5.458-5.786-7.464-8.076A13.35,13.35,0,0,1,194.244,323.372Z" transform="translate(-172.281 -214.735)" fill="#9b9b9b"/>
      <path id="Path_2288" data-name="Path 2288" d="M219.774,328.4a27.479,27.479,0,0,0-4.444-2.724s7.973,20.334,22.54,29.571l.084-1.248-7.867-16.6Z" transform="translate(-191.86 -216.4)" fill="#c1c1c1" opacity="0.5"/>
      <path id="Path_2289" data-name="Path 2289" d="M234.166,282.189c-.4-1.679-4.088-4.959-5.358-6.553a193.708,193.708,0,0,1-11.7-16.133c-5.832-9.072-11.815-21.407-11.428-32.476.147-4.091,1.685-10.991,6.8-11.318,3.826-.243,6.865,3.907,8.681,6.806,4.737,7.627,7.021,16.539,9.012,25.214,2.287,9.955,3.654,20.19,5.074,30.342Z" transform="translate(-185.209 -140.738)" fill="#6fb744"/>
      <path id="Path_2290" data-name="Path 2290" d="M229.528,269.158a38.7,38.7,0,0,1,2.437-14.923l-.312-.134a38.312,38.312,0,0,0-2.475,14.311c-1.613-3.623-3.092-7.115-4.447-10.451.961-12.145,4.166-16.486,4.2-16.539l-.259-.2c-.131.175-3.183,4.3-4.21,16.055-1.776-4.413-3.333-8.554-4.681-12.373.4-11.1,4.466-16.733,4.506-16.789l-.262-.193c-.044.056-3.966,5.489-4.534,16.165-1.673-4.75-3.03-8.99-4.122-12.642-.646-8.532,2.646-12.754,2.681-12.794l-.256-.2c-.034.041-3.052,3.9-2.809,11.659-2.5-8.466-3.433-13.384-3.433-13.5l-.312.059c.022.115,1.024,5.361,3.689,14.355-1.311-1.226-5.355-4.79-8.694-5.342l-.053.312c3.816.624,8.788,5.508,8.937,5.658,1.086,3.632,2.437,7.845,4.1,12.557a19.969,19.969,0,0,0-11.752-5.842l-.05.312c8.357,1.267,12.058,6.316,12.1,6.366l.016.025c1.317,3.8,2.852,7.861,4.6,12.23-1.248-1.186-4.631-3.745-10.9-4.606l-.044.312c8.067,1.1,11.234,5.049,11.272,5.09h0q1.894,4.662,4.122,9.714c-1.061-.952-3.3-2.234-8.026-3.286l-.072.312c6.329,1.411,8.082,3.227,8.557,4q2.556,5.726,5.567,11.858l.293-.144Q231.994,274.678,229.528,269.158Z" transform="translate(-185.565 -141.366)" fill="#f6f8ff"/>
      <path id="Path_2291" data-name="Path 2291" d="M451.67,294.053a55.844,55.844,0,0,1-1.217-9.028,87.147,87.147,0,0,1,.25-18.917c.543-4.469,2.016-9.6,4.821-13.222,1.348-1.741,3.866-4.019,6.272-3.717,5.854.736,4.391,12.888,3.545,16.539a76.013,76.013,0,0,1-13.671,28.347Z" transform="translate(-353.337 -163.746)" fill="#fece0c"/>
      <path id="Path_2292" data-name="Path 2292" d="M465.654,254.486v-.222a13.819,13.819,0,0,0-6.319,1.713c1.351-4.138,2.344-6.719,2.375-6.8l-.206-.081c-.031.078-1.014,2.637-2.359,6.737a10.723,10.723,0,0,0-2.094-4.806l-.165.15a10.863,10.863,0,0,1,2.122,5.08c-.936,2.893-2.041,6.5-3.121,10.52a28.848,28.848,0,0,0-2.9-9.8l-.193.109a28.82,28.82,0,0,1,2.943,10.251v.016c-.8,3.055-1.582,6.338-2.256,9.721-1.211-6.272-3.077-9.1-3.1-9.128l-.184.122c.019.031,1.969,2.977,3.164,9.583h0c-.515,2.631-.961,5.305-1.3,7.992a29.516,29.516,0,0,0-2.081-7.034l-.2.1a31.21,31.21,0,0,1,2.184,7.63c-.312,2.584-.53,5.158-.609,7.667h.218c.081-2.5.3-5.077.609-7.658,1.91-3.214,7.152-4.815,7.205-4.831l-.065-.212c-.05.016-4.952,1.514-7.074,4.54.346-2.743.805-5.5,1.329-8.188,3.4-4.057,9.262-4.353,9.318-4.369v-.222c-.056,0-5.733.29-9.221,4.144.683-3.433,1.476-6.778,2.294-9.883,2.275-3.021,9.49-3.6,9.565-3.607l-.019-.222c-.29.022-6.819.549-9.415,3.33,1.074-4.032,2.184-7.649,3.121-10.545C461.757,254.545,465.617,254.489,465.654,254.486Z" transform="translate(-353.147 -163.717)" fill="#9b9b9b"/>
      <path id="Path_2293" data-name="Path 2293" d="M472.751,257.73a20.349,20.349,0,0,1,1.323,6.7l-12.76,34.439-.094-9.49S463.523,272.534,472.751,257.73Z" transform="translate(-361.017 -169.654)" fill="#c1c1c1" opacity="0.5"/>
      <path id="Path_2294" data-name="Path 2294" d="M456.36,289.668c0-3.795,1.148-8.925,1.95-13.313a129.047,129.047,0,0,1,8.067-26.769c2.593-6.126,6.778-12.794,12.239-16.811,2.621-1.922,7.127-4.132,10.423-2.721,8.014,3.433.98,20.09-1.707,24.927A112.3,112.3,0,0,1,456.36,289.668Z" transform="translate(-357.674 -150.308)" fill="#6fb744"/>
      <path id="Path_2295" data-name="Path 2295" d="M492.32,240.07l.087-.312c-.053,0-5.327-1.442-9.674-.147,3.607-5.321,6.07-8.582,6.144-8.681l-.259-.2c-.075.1-2.515,3.33-6.095,8.607.343-4.868-.958-7.564-1.017-7.68l-.293.147c.016.028,1.429,2.943.936,8.082-2.515,3.72-5.548,8.394-8.706,13.668a42.633,42.633,0,0,0-.131-15.1l-.312.078a43.144,43.144,0,0,1,0,15.759v.022c-2.387,4.013-4.834,8.36-7.177,12.885.839-9.4-.659-14.177-.674-14.227l-.312.1c.016.05,1.582,5.027.587,14.9h0c-1.8,3.529-3.536,7.152-5.1,10.819.6-7.433-.081-10.8-.087-10.838l-.312.066c0,.037.74,3.654,0,11.73-1.5,3.542-2.852,7.109-3.988,10.638l.312.1c1.133-3.526,2.5-7.087,3.985-10.626,4.019-3.785,12.117-3.923,12.2-3.926v-.312c-.078,0-7.655.131-11.9,3.564,1.613-3.745,3.386-7.489,5.23-11.091,6.481-4.369,14.926-2.406,15.01-2.387l.078-.312c-.084-.019-8.26-1.925-14.789,2.125,2.372-4.6,4.859-9.025,7.287-13.107,4.466-3.361,14.948-1.248,15.054-1.223l.066-.312c-.421-.087-9.911-2-14.729.893,3.167-5.305,6.21-9.986,8.738-13.709C486.759,238.563,492.264,240.054,492.32,240.07Z" transform="translate(-357.385 -151.08)" fill="#fff"/>
      <rect id="Rectangle_512" data-name="Rectangle 512" width="54.411" height="105.542" rx="15" transform="translate(45.789 39.498)" fill="#153556"/>
      <rect id="Rectangle_513" data-name="Rectangle 513" width="51.343" height="79.924" transform="translate(48.295 53.152)" fill="#1c4b72"/>
      <g id="Group_4260" data-name="Group 4260" transform="translate(41.289 12.82)" clip-path="url(#clip-path)">
        <path id="Path_2296" data-name="Path 2296" d="M354.46,123.121c3.614-2.047,10.079-2.184,12.979.29" transform="translate(-328.862 -88.803)" fill="none" stroke="#0a1d35" stroke-miterlimit="10" stroke-width="2"/>
        <path id="Path_2297" data-name="Path 2297" d="M162.368,94.935l3.261-1.557,7.546-3.748,3.261,4.306,3.426,1.423,4.893,1.46-1.707,75.774-21.282.34-3.286-69.817Z" transform="translate(-138.661 -59.663)" fill="#4fc9b8"/>
        <path id="Path_2298" data-name="Path 2298" d="M343.13,130.07c-.609,11.858,8.95,25.7,9.09,34.414,0,0,3.055-11.568,4.369-15.681s4.516-15.659,4.038-18.443l2.809,31.518-9.533,5.929-10.242-4.859s-2.93-16.8-2.921-17.282C340.987,133.877,343.13,130.079,343.13,130.07Z" transform="translate(-319.423 -94.651)" fill="#9b9b9b" opacity="0.3"/>
        <path id="Path_2299" data-name="Path 2299" d="M324.206,378.215c-.24,2.768-2.7,28.947-7.418,53.322-4.806,24.793-3.582,50-3.582,50a18.1,18.1,0,0,1-10.822.243s-2.322-38.817-.262-53.05c3.214-22.156-1.395-56.277,2.063-66.868,0,0,5.654-6.51,12.186-6.6,6.662-.1,14.917-.175,21.077-.119,3.763.037,6.1,6.531,7.461,6.7.271,7.284,2.44,37.709.555,65.221-1.679,24.525-.234,46.35-.153,53.44,0,0-1.626,1.248-6.272,1.691-4.556.434-6.288-.777-6.288-.777s-4.154-39.532-3.23-54.289c.752-12.046-3.352-48.909-3.352-48.909Z" transform="translate(-292.27 -249.472)" fill="#4fc9b8"/>
        <path id="Path_2300" data-name="Path 2300" d="M308.77,411.252c6.716,3.164,20.041,2.359,20.983-19.036h1.966c.683,6.478,2.724,15.6,9.493,17.684,6.107,1.872,9.874,1.17,10.541.974l-7.093-40.758L332.771,342l-3.5.031-18.892,57.9-1.6,7.645Z" transform="translate(-297.43 -240.446)" fill="#9b9b9b" opacity="0.5"/>
        <path id="Path_2301" data-name="Path 2301" d="M377.87,165.808c.031-1.713,6.063-15.6,7.858-26.076a30.283,30.283,0,0,0,.443-8.763,57.425,57.425,0,0,1,10.707,3.451l1.117,18.992c.431,3.38-.253,18.48.359,32.323.312,7.368,2.231,28.457,2.322,29.387,1.286,12.988,2.3,19.691,2.575,22.88.022.225-5.4,3.292-12.916.811-3.935-1.3-9.019-8.525-9.643-22.5C379.873,197.982,377.87,165.93,377.87,165.808Z" transform="translate(-344.966 -95.27)" fill="#fff"/>
        <path id="Path_2302" data-name="Path 2302" d="M310.834,166.757c0-7.777-7.24-18.037-9.168-27.249-.936-4.481-.874-7.979-.162-9.908-2.39,1.145-9.487,2.933-12.514,4.806l.371,20.6c.343,4.831.743,15.762.487,27.209-.393,17.691-5.249,35.768-9.618,52.972-.025.09,10.679,6.1,19.972,3.142,7.227-2.3,8.519-15.8,8.46-26.5C308.674,211.815,310.834,167.131,310.834,166.757Z" transform="translate(-277.796 -94.328)" fill="#fff"/>
        <g id="Group_4256" data-name="Group 4256" transform="translate(36.258 85.898)">
          <path id="Path_2303" data-name="Path 2303" d="M388.62,293.34a1.51,1.51,0,1,0,1.51-1.51A1.51,1.51,0,0,0,388.62,293.34Z" transform="translate(-388.62 -291.83)" fill="#c7daea"/>
        </g>
        <g id="Group_4257" data-name="Group 4257" transform="translate(37.042 98.511)">
          <path id="Path_2304" data-name="Path 2304" d="M391.13,333.757a1.51,1.51,0,1,0,1.51-1.507A1.51,1.51,0,0,0,391.13,333.757Z" transform="translate(-391.13 -332.25)" fill="#c7daea"/>
        </g>
        <path id="Path_2305" data-name="Path 2305" d="M290.587,176.122c5.486-.187,13.731-.356,22.78-.362,2.362.059,1.426,8.682.562,7.29-4.937.15-32.173,7.237-33.756,3.417-1.061-2.571,4.878-35.887,7.524-41.254,1.51-2.315,2.958-3.224,6.241.805,2.459,3.024.8,10.008.162,11.914C293.083,160.984,290.587,176.122,290.587,176.122Z" transform="translate(-277.671 -103.708)" fill="#fff"/>
        <path id="Path_2306" data-name="Path 2306" d="M383.42,279.39s17.75,3.595,18.724,6.737l-.112-3.826Z" transform="translate(-348.784 -197.374)" fill="#c7daea"/>
        <path id="Path_2307" data-name="Path 2307" d="M311.132,277.926l15.831-2.756s-15.8,3.673-15.893,6.709" transform="translate(-299.012 -194.471)" fill="#c7daea"/>
        <path id="Path_2308" data-name="Path 2308" d="M315.973,216.363l-2.153.069,2.643-14.6S315.087,214.272,315.973,216.363Z" transform="translate(-300.904 -144.018)" fill="#c7daea"/>
        <path id="Path_2309" data-name="Path 2309" d="M318.278,386.39s-.955,15.291-3.935,16.056c-2.624.668-8.713-1-8.713-1s7.689,2.428,9.537,1.56C318.44,401.481,318.278,386.39,318.278,386.39Z" transform="translate(-295.27 -270.984)" fill="#c7daea"/>
        <path id="Path_2310" data-name="Path 2310" d="M404.83,388s1.329,14.576,4.278,15.45c2.593.774,7.77.084,7.77.084s-6.8,1.379-8.619.446C405.052,402.314,404.83,388,404.83,388Z" transform="translate(-363.513 -272.092)" fill="#c7daea"/>
        <path id="Path_2311" data-name="Path 2311" d="M326.928,192.349a2.066,2.066,0,1,1-.605-1.464A2.069,2.069,0,0,1,326.928,192.349Z" transform="translate(-307.075 -136.072)" fill="#c7daea"/>
        <path id="Path_2312" data-name="Path 2312" d="M328.016,194.358a1.155,1.155,0,1,1-.337-.818A1.158,1.158,0,0,1,328.016,194.358Z" transform="translate(-309.077 -138.081)" fill="#95b3c6"/>
        <path id="Path_2313" data-name="Path 2313" d="M345.775,59.529A7.177,7.177,0,1,1,338.6,52.37a7.177,7.177,0,0,1,7.177,7.159Z" transform="translate(-313.012 -41.198)" fill="#0e263f"/>
        <path id="Path_2314" data-name="Path 2314" d="M405.027,65.6c-.24,1.807-1.638,4.122-2.977,3.433a2.985,2.985,0,0,1-1.754-3.308,3.109,3.109,0,0,1,2.618-2.98C404.462,62.42,405.264,63.79,405.027,65.6Z" transform="translate(-360.368 -48.303)" fill="#f29a86"/>
        <path id="Path_2315" data-name="Path 2315" d="M409.134,63.283a1.506,1.506,0,0,0-2.284.808l.165-1.279a2.028,2.028,0,0,1,1.092-.14A1.4,1.4,0,0,1,409.134,63.283Z" transform="translate(-364.903 -48.27)" fill="#ffaf99"/>
        <path id="Path_2316" data-name="Path 2316" d="M340.8,65.612c.24,1.8,1.641,4.119,2.98,3.433a2.975,2.975,0,0,0,1.748-3.308A3.106,3.106,0,0,0,342.9,62.76C341.359,62.445,340.557,63.815,340.8,65.612Z" transform="translate(-319.434 -48.315)" fill="#f29a86"/>
        <path id="Path_2317" data-name="Path 2317" d="M342.25,63.326a1.506,1.506,0,0,1,2.287.8l-.181-1.279a2.044,2.044,0,0,0-1.092-.137A1.392,1.392,0,0,0,342.25,63.326Z" transform="translate(-320.462 -48.297)" fill="#ffaf99"/>
        <path id="Path_2318" data-name="Path 2318" d="M354.256,102.81c.437,1.813-.456,5.8-.624,6.8-.378.14-2.362,1.127-2.362,1.127,0,2.153.334,5.474,2.481,7.87,2.5,2.809,5.127,6.591,5.127,9.8l.658.037c0-3.433,2.712-7.234,5.452-10.173,2.465-2.646,1.907-5.745,1.907-7.081l-2.456-1.02a15.3,15.3,0,0,1-.087-6.7Z" transform="translate(-326.667 -75.898)" fill="#ffaf99"/>
        <path id="Path_2319" data-name="Path 2319" d="M360.842,103.966a12.793,12.793,0,0,1-.072,1.9s2.765,3.969,4.859,4.057,4.946-3.333,4.946-3.333.059-2.375.2-3.361Z" transform="translate(-333.203 -76.187)" fill="#f29a86"/>
        <path id="Path_2320" data-name="Path 2320" d="M367.693,41.678a9.146,9.146,0,1,1-18.275-.8c.313-6.775,4.535-9.852,9.581-9.63S368.005,35.046,367.693,41.678Z" transform="translate(-325.387 -26.658)" fill="#ffaf99"/>
        <path id="Path_2321" data-name="Path 2321" d="M367.426,62.918c-.218,4.887-.4,8.978-2.378,11.546-1.192,1.56-4.228,4.172-6.369,4.775a6.115,6.115,0,0,1-2.543-.209c-2.06-.836-4.628-3.632-5.633-5.205-1.744-2.74-1.56-6.831-1.351-11.715" transform="translate(-325.12 -47.899)" fill="#ffaf99"/>
        <path id="Path_2322" data-name="Path 2322" d="M390.73,72.558c-.034.83-.565,1.482-1.18,1.454s-1.089-.724-1.055-1.56.568-1.482,1.186-1.454S390.768,71.741,390.73,72.558Z" transform="translate(-352.275 -54.013)" fill="#0e263f"/>
        <path id="Path_2323" data-name="Path 2323" d="M363.36,71.558c-.037.83-.568,1.482-1.186,1.454s-1.086-.724-1.048-1.56.565-1.482,1.183-1.454S363.4,70.722,363.36,71.558Z" transform="translate(-333.446 -53.325)" fill="#0e263f"/>
        <path id="Path_2324" data-name="Path 2324" d="M384.066,62.017a5.261,5.261,0,0,1,.974-.162c.147,0,.312-.025.474-.028s.346,0,.53,0a8.313,8.313,0,0,1,1.145.122c.193.028.387.078.577.122s.371.109.549.169.343.137.5.206a4.854,4.854,0,0,1,.427.24,3.259,3.259,0,0,1,.343.243,1.508,1.508,0,0,1,.237.218,2.213,2.213,0,0,1,.187.212.1.1,0,0,1-.019.14.106.106,0,0,1-.081,0h0l-.256-.072c-.081-.025-.172-.056-.284-.081s-.231-.062-.365-.09c-.271-.059-.58-.128-.917-.2l-1.058-.209-1.073-.212-.5-.1c-.159-.028-.312-.072-.449-.1-.559-.125-.936-.243-.936-.243a.1.1,0,0,1-.066-.128A.1.1,0,0,1,384.066,62.017Z" transform="translate(-349.187 -47.703)" fill="#0e263f"/>
        <path id="Path_2325" data-name="Path 2325" d="M359.151,62.355s-.371.094-.936.193c-.271.053-.59.1-.936.165l-1.048.178-1.033.19c-.162.037-.312.069-.474.094s-.287.072-.421.094-.247.069-.356.09-.2.056-.275.078c-.153.044-.25.066-.25.066h-.016a.128.128,0,0,1-.153-.1.125.125,0,0,1,.028-.109,2.626,2.626,0,0,1,.19-.2,1.69,1.69,0,0,1,.24-.206,4.041,4.041,0,0,1,.337-.234c.128-.075.271-.147.424-.222a4.912,4.912,0,0,1,.493-.2c.181-.066.359-.109.543-.156a4.931,4.931,0,0,1,.568-.109,8.239,8.239,0,0,1,2.106-.05,5.386,5.386,0,0,1,.936.181.131.131,0,0,1,.084.165.134.134,0,0,1-.053.087Z" transform="translate(-328.03 -47.738)" fill="#0e263f"/>
        <path id="Path_2326" data-name="Path 2326" d="M372.255,91.318a6.139,6.139,0,0,1,2.887.128c.44.259-.977.512-1.467.49S371.821,91.5,372.255,91.318Z" transform="translate(-341.046 -67.913)" fill="#f29a86"/>
        <path id="Path_2327" data-name="Path 2327" d="M373.964,107.891a10.863,10.863,0,0,0-2.924-.128c-.471.062.624-.362,1.467-.312C373.284,107.47,374.41,108.01,373.964,107.891Z" transform="translate(-340.19 -79.088)" fill="#e5886e" opacity="0.5"/>
        <path id="Path_2328" data-name="Path 2328" d="M367.532,97.508a14.367,14.367,0,0,0,5.6.477c.206,0,.115.016-.091.253a3.8,3.8,0,0,1-2.824,1.492c-1.37-.072-2.546-1.782-2.843-2.275C367.248,97.252,367.36,97.455,367.532,97.508Z" transform="translate(-337.708 -72.154)" fill="#fff"/>
        <path id="Path_2329" data-name="Path 2329" d="M366.3,96.529c1.114.187,2.5-.44,3.121.253.874-.555,2.375.437,3.517.437.022,0,.056.041-.022.062a9.827,9.827,0,0,1-6.65-.624C366.151,96.575,366.16,96.5,366.3,96.529Z" transform="translate(-336.93 -71.52)" fill="#f29a86"/>
        <path id="Path_2330" data-name="Path 2330" d="M366.78,97.16a12.736,12.736,0,0,0,1.523,2.053,3.124,3.124,0,0,0,3.058.281,12.811,12.811,0,0,0,1.729-1.726l-.265.078a8.721,8.721,0,0,1-1.7.983,3.433,3.433,0,0,1-2.147.028c-.9-.287-1.1-.964-1.729-1.47l-.312-.184Z" transform="translate(-337.337 -72.011)" fill="#f29a86"/>
        <path id="Path_2331" data-name="Path 2331" d="M368.78,98.2a4.93,4.93,0,0,0,2.5.783,8.544,8.544,0,0,0,2.809-.356,17.934,17.934,0,0,1-2.74.134A8.34,8.34,0,0,1,368.78,98.2Z" transform="translate(-338.713 -72.727)" fill="#e2e2e2"/>
        <path id="Path_2332" data-name="Path 2332" d="M329.472,147.172c-.487-8.738,1.807-19.585,8.956-22.562" transform="translate(-311.628 -90.895)" fill="none" stroke="#0a1d35" stroke-linecap="round" stroke-linejoin="round" stroke-width="2"/>
        <path id="Path_2333" data-name="Path 2333" d="M344.868,132.35l-1.008,25.589,3.841.427-2.833,2.977,9.814,6.51s-.075-4.409-5.533-15.915C345.152,143.537,345.058,139.184,344.868,132.35Z" transform="translate(-321.57 -96.22)" fill="#c7daea"/>
        <path id="Path_2334" data-name="Path 2334" d="M386.143,131l1.872,26.007-3.635.428,2.862,2.977-9.2,6.51-.209-1.5s4.235-11.287,6.091-18.149A64.285,64.285,0,0,0,386.143,131Z" transform="translate(-344.939 -95.291)" fill="#c7daea"/>
        <path id="Path_2335" data-name="Path 2335" d="M362.51,175.021c-5.486-.178-16.583-3.121-25.639-3.121-.59,0-8.354,2.075-8.391,2.993a10.811,10.811,0,0,1,5.817,1.56c2.893,1.726,5.551,4.54,5.929,3.944,4.94.144,30.679,9.777,32.8,6.241,2.219-3.707-.062-11.68-.705-15.475-1.211-7.115-2.565-14.314-4.469-21.279-1.3-4.771-5.2-12.367-10.07-5.967-2.362,3.1-.131,11.347,1.111,12.926S362.51,175.021,362.51,175.021Z" transform="translate(-310.989 -102.489)" fill="#ffaf99"/>
        <path id="Path_2336" data-name="Path 2336" d="M345.455,255.122l-5.689-2.6s-6.241-4.853-10.922-4.993l-.384.343s5.645.115,8.494,3.745c1.336,1.7,4.294,2.184,5.1,4.085C342.063,255.7,344.519,255.278,345.455,255.122Z" transform="translate(-310.975 -175.457)" fill="#f29a86"/>
        <path id="Path_2337" data-name="Path 2337" d="M371.087,170.013a13.721,13.721,0,0,0-.069,11.765s27.24,4.681,30.217,3.654.562-13.047-.328-17.61-3.882-26.862-10.151-28.6l-2.515-1-3.333,1.6s-2.319,7.936-2.381,8.114.449,12.685.449,12.685l6.659,10.763Z" transform="translate(-339.354 -100.258)" fill="#fff"/>
        <path id="Path_2338" data-name="Path 2338" d="M410.1,231.775c2.275.375,3.533,6.4.312,6.84-1.957.268-3.217-.443-4.768-1.782-1.342-1.158-4.815-1.8-6.8-1.944C398.846,234.89,406.173,231.13,410.1,231.775Z" transform="translate(-359.392 -164.567)" fill="#ffaf99"/>
        <path id="Path_2339" data-name="Path 2339" d="M429.12,199.42c.128.506,1.064,10.148,1.064,10.148a6.864,6.864,0,0,0-2.144,0S429.756,208.666,429.12,199.42Z" transform="translate(-379.48 -142.36)" fill="#c7daea"/>
        <path id="Path_2340" data-name="Path 2340" d="M399.458,223.624a.624.624,0,1,1-.624-.624A.624.624,0,0,1,399.458,223.624Z" transform="translate(-358.959 -158.581)" fill="#0a1d35"/>
        <path id="Path_2341" data-name="Path 2341" d="M422.058,223.624a.624.624,0,1,1-.624-.624A.624.624,0,0,1,422.058,223.624Z" transform="translate(-374.507 -158.581)" fill="#0a1d35"/>
        <path id="Path_2342" data-name="Path 2342" d="M397.379,223.941a.481.481,0,0,1-.481.481h-.368a.481.481,0,0,1-.481-.481h0a.481.481,0,0,1,.481-.481h.368A.481.481,0,0,1,397.379,223.941Z" transform="translate(-357.473 -158.898)" fill="#0a1d35"/>
        <path id="Path_2343" data-name="Path 2343" d="M423.7,223.941a.477.477,0,0,1-.478.481h-.371a.481.481,0,0,1-.481-.481h0a.481.481,0,0,1,.481-.481h.371a.477.477,0,0,1,.477.481Z" transform="translate(-375.58 -158.898)" fill="#0a1d35"/>
        <path id="Path_2344" data-name="Path 2344" d="M393.89,125.79c4.163,2.568,4.921,8.4,5.67,14.074" transform="translate(-355.987 -91.707)" fill="none" stroke="#0a1d35" stroke-linecap="round" stroke-linejoin="round" stroke-width="2"/>
        <path id="Path_2345" data-name="Path 2345" d="M396.862,187.8c-4.9-11.456,3.7-16.873,3.7-16.873s9.215,5.567,3.352,16.873" transform="translate(-356.993 -122.76)" fill="none" stroke="#0a1d35" stroke-miterlimit="10" stroke-width="2"/>
        <g id="Group_4258" data-name="Group 4258" transform="translate(36.845 86.406)">
          <path id="Path_2346" data-name="Path 2346" d="M390.5,294.232c0,.509.415,0,.936,0s.936.509.936,0a.936.936,0,0,0-1.844,0Z" transform="translate(-390.5 -293.458)" fill="#c7daea"/>
        </g>
        <g id="Group_4259" data-name="Group 4259" transform="translate(37.625 99.134)">
          <path id="Path_2347" data-name="Path 2347" d="M393,335.012c0,.509.412,0,.936,0s.921.509.921,0a.936.936,0,0,0-1.841,0Z" transform="translate(-393 -334.246)" fill="#c7daea"/>
        </g>
        <path id="Path_2348" data-name="Path 2348" d="M407.331,70.54s.69.921.574,1.457a2.093,2.093,0,0,1-.805,1Z" transform="translate(-365.075 -53.698)" fill="#ffaf99"/>
        <path id="Path_2349" data-name="Path 2349" d="M347.339,70.54s-.693.921-.577,1.457a2.093,2.093,0,0,0,.805,1Z" transform="translate(-323.557 -53.698)" fill="#ffaf99"/>
        <path id="Path_2350" data-name="Path 2350" d="M348.557,45.082c.053-1.894,1.27-5.889,3.083-7.159a12.254,12.254,0,0,0,2.986-3.139s-.062,2.646,3.277,3.414c3.632.839,7.118,1.464,8.288,4.31l.215-1.286-11.49-8.972-5.264,5.967-1.482,3.589Z" transform="translate(-324.535 -27.357)" fill="#f29a86"/>
        <path id="Path_2351" data-name="Path 2351" d="M380.917,39.994c-.047-2.5.119-4.478-1.916-6.276-2.862-2.534-5.411-1.648-7.7-3.2-2.15-1.464-2.378-3.77-2.138-6,.125-1.161,2.74-1.8,4.665-1.439,6.241,1.189,7.939,7.714,7.7,12.738a19.439,19.439,0,0,1-.605,4.182Z" transform="translate(-338.923 -20.974)" fill="#0e263f"/>
        <path id="Path_2352" data-name="Path 2352" d="M353.157,29A8.018,8.018,0,0,1,350,32.887c-3.024,2.294-3.142,8.235-2.943,9.827a23.494,23.494,0,0,1-1.145-6.765c-.072-5.171,4.169-11.521,7.639-9.159A11.741,11.741,0,0,1,353.157,29Z" transform="translate(-322.978 -23.25)" fill="#0e263f"/>
      </g>
      <path id="Path_2353" data-name="Path 2353" d="M437.042,124.264a.312.312,0,1,0-.312-.312A.312.312,0,0,0,437.042,124.264Z" transform="translate(-344.17 -77.408)" fill="none"/>
      <g id="Group_4261" data-name="Group 4261" transform="translate(93.234 53.967)" clip-path="url(#clip-path-2)">
        <path id="Path_2354" data-name="Path 2354" d="M442.941,122.79h-3.657a.053.053,0,0,0-.053.053v.537h-.287a.053.053,0,0,0-.053.053v.936a.056.056,0,0,0,.053.053h.293v.537a.056.056,0,0,0,.053.053h3.657a.053.053,0,0,0,.05-.053v-2.1a.05.05,0,0,0-.05-.053Zm-.506,1.626h-1.148v-1.07h1.148Z" transform="translate(-438.89 -122.79)" fill="#fff"/>
      </g>
      <path id="Path_2355" data-name="Path 2355" d="M432.248,123.886h0a.786.786,0,1,0-1.4,0h0l.031.05.031.056.555.9c.072.115.122.087.172,0l.559-.914a.311.311,0,0,0,.031-.053.459.459,0,0,0,.025-.044Zm-.705-.749a.393.393,0,1,1-.393.393A.393.393,0,0,1,431.543,123.137Z" transform="translate(-340.063 -68.793)" fill="#fff"/>
      <rect id="Rectangle_516" data-name="Rectangle 516" width="0.234" height="0.864" transform="translate(87.723 55.137)" fill="#fff" stroke="#fff" stroke-linecap="round" stroke-linejoin="round" stroke-width="1"/>
      <rect id="Rectangle_517" data-name="Rectangle 517" width="0.234" height="1.448" transform="translate(88.497 54.553)" fill="#fff" stroke="#fff" stroke-linecap="round" stroke-linejoin="round" stroke-width="1"/>
      <rect id="Rectangle_518" data-name="Rectangle 518" width="0.234" height="2.007" transform="translate(89.28 53.995)" fill="#fff" stroke="#fff" stroke-linecap="round" stroke-linejoin="round" stroke-width="1"/>
      <path id="Path_2356" data-name="Path 2356" d="M139.021,388.447l-1.5-1.507-1.507,1.507v1.5h3.011Z" transform="translate(-81.914 -251.375)" fill="none" stroke="#fff" stroke-linecap="round" stroke-linejoin="round" stroke-width="1"/>
      <path id="Path_2357" data-name="Path 2357" d="M372.355,411.417a1.5,1.5,0,1,1-.439-1.066,1.507,1.507,0,0,1,.439,1.066Z" transform="translate(-297.81 -274.345)" fill="none" stroke="#fff" stroke-linecap="round" stroke-linejoin="round" stroke-width="1"/>
      <line id="Line_89" data-name="Line 89" y1="2.534" transform="translate(90.909 136.043)" fill="none" stroke="#fff" stroke-linecap="round" stroke-linejoin="round" stroke-width="1"/>
      <line id="Line_90" data-name="Line 90" y1="2.534" transform="translate(89.802 136.043)" fill="none" stroke="#fff" stroke-linecap="round" stroke-linejoin="round" stroke-width="1"/>
      <line id="Line_91" data-name="Line 91" y1="2.534" transform="translate(88.694 136.043)" fill="none" stroke="#fff" stroke-linecap="round" stroke-linejoin="round" stroke-width="1"/>
      <path id="Path_2358" data-name="Path 2358" d="M299.94,106.865a.805.805,0,1,1-.805-.805A.805.805,0,0,1,299.94,106.865Z" transform="translate(-248.091 -52.106)" fill="#fff"/>
      <path id="Path_2359" data-name="Path 2359" d="M307.436,106.865a.808.808,0,1,1-.805-.805A.808.808,0,0,1,307.436,106.865Z" transform="translate(-253.244 -52.106)" fill="#fff" opacity="0.3"/>
      <path id="Path_2368" data-name="Path 2368" d="M218.751,170.157l1.663-1.03.6-1.872-.662-1.754-1.3-1.111-4.653.109a2.908,2.908,0,1,0,.137,5.814l4.425-.1Z" transform="translate(-189.224 -105.442)" fill="none"/>
      <path id="Path_2370" data-name="Path 2370" d="M239.173,164.123l-2.643.059a3.3,3.3,0,0,1,.134,5.817l2.643-.062a2.908,2.908,0,1,0-.134-5.814Z" transform="translate(-206.444 -105.256)" fill="none"/>
      <path id="Path_2371" data-name="Path 2371" d="M220.719,167.278a2.908,2.908,0,0,0-2.968-2.84l-3.327.078a2.908,2.908,0,1,0,.137,5.814l3.323-.078A2.908,2.908,0,0,0,220.719,167.278Z" transform="translate(-189.238 -105.475)" fill="none"/>
    </g>
  </g>
</svg>
