<svg xmlns="http://www.w3.org/2000/svg" width="19.175" height="24" viewBox="0 0 19.175 24">
  <g id="Icon_ionic-ios-notifications-outline" data-name="Icon ionic-ios-notifications-outline" transform="translate(-6.775 -3.93)">
    <path id="Path_14" data-name="Path 14" d="M20.37,28.336a.911.911,0,0,0-.893.717,1.762,1.762,0,0,1-.352.766,1.329,1.329,0,0,1-1.132.415,1.351,1.351,0,0,1-1.132-.415,1.762,1.762,0,0,1-.352-.766.911.911,0,0,0-.893-.717h0a.917.917,0,0,0-.893,1.118,3.142,3.142,0,0,0,3.27,2.609,3.136,3.136,0,0,0,3.27-2.609.92.92,0,0,0-.893-1.118Z" transform="translate(-1.646 -4.132)" fill="#e0e1f4"/>
    <path id="Path_15" data-name="Path 15" d="M25.709,21.033c-.924-1.172-2.741-1.859-2.741-7.105,0-5.385-2.471-7.55-4.775-8.069-.216-.052-.372-.121-.372-.341V5.35a1.443,1.443,0,0,0-1.44-1.42h-.036a1.443,1.443,0,0,0-1.44,1.42v.167c0,.214-.156.289-.372.341-2.309.525-4.775,2.684-4.775,8.069,0,5.247-1.818,5.928-2.741,7.105a1.143,1.143,0,0,0,.954,1.835h16.8A1.144,1.144,0,0,0,25.709,21.033Zm-2.339.335H9.381a.252.252,0,0,1-.2-.421,6.964,6.964,0,0,0,1.26-1.928,12.637,12.637,0,0,0,.858-5.091,8.591,8.591,0,0,1,1.254-5.01,3.855,3.855,0,0,1,2.321-1.593,2.123,2.123,0,0,0,1.116-.606.487.487,0,0,1,.714-.012,2.2,2.2,0,0,0,1.128.618,3.855,3.855,0,0,1,2.321,1.593,8.591,8.591,0,0,1,1.254,5.01,12.637,12.637,0,0,0,.858,5.091,7.047,7.047,0,0,0,1.29,1.957A.238.238,0,0,1,23.369,21.367Z" transform="translate(0)" fill="#e0e1f4"/>
  </g>
</svg>
