<svg xmlns="http://www.w3.org/2000/svg" width="50" height="50" viewBox="0 0 50 50">
  <g id="Group_3716" data-name="Group 3716" transform="translate(-344 -305)">
    <circle id="Ellipse_12" data-name="Ellipse 12" cx="25" cy="25" r="25" transform="translate(344 305)" fill="#6fb744"/>
    <path id="Path_2378" data-name="Path 2378" d="M15.391,4.833C6.9,4.833,0,10.889,0,18.333a12.514,12.514,0,0,0,3.317,8.374,4.9,4.9,0,0,1-1.572,3.54l-.936.886,1.218.421a5.143,5.143,0,0,0,1.687.279A8.1,8.1,0,0,0,8.15,30.245a17.14,17.14,0,0,0,7.241,1.588c8.487,0,15.392-6.056,15.392-13.5S23.877,4.833,15.391,4.833ZM10.43,21.365a1.733,1.733,0,0,1-.617.628,2.677,2.677,0,0,1-.88.328,5.364,5.364,0,0,1-1.008.1,5.915,5.915,0,0,1-1.4-.135,2.5,2.5,0,0,1-.744-.276c-.034-.034-.047-.113-.039-.238a2.483,2.483,0,0,1,.058-.385,1.766,1.766,0,0,1,.115-.353c.047-.1.092-.15.135-.141q.334.116.725.225a3.8,3.8,0,0,0,1,.109,2.706,2.706,0,0,0,1.047-.18.646.646,0,0,0,.43-.642.826.826,0,0,0-.283-.649,3.527,3.527,0,0,0-1.015-.532,7.246,7.246,0,0,1-.751-.341,2.862,2.862,0,0,1-.623-.437,1.8,1.8,0,0,1-.424-.6A2.008,2.008,0,0,1,6,17.023a1.855,1.855,0,0,1,.148-.732,1.535,1.535,0,0,1,.456-.6,2.316,2.316,0,0,1,.79-.4,3.943,3.943,0,0,1,1.15-.148q.436,0,.725.019a4.755,4.755,0,0,1,.475.052,2.136,2.136,0,0,1,.3.071c.077.026.15.047.218.064s.09.1.09.225a1.711,1.711,0,0,1-.052.4,1.477,1.477,0,0,1-.141.372q-.09.161-.18.135-.218-.064-.6-.141a3.68,3.68,0,0,0-.738-.077,1.781,1.781,0,0,0-1.008.205.653.653,0,0,0-.276.552.7.7,0,0,0,.308.6,3.933,3.933,0,0,0,.963.456,4.161,4.161,0,0,1,1.535.944,1.9,1.9,0,0,1,.495,1.342A1.978,1.978,0,0,1,10.43,21.365Zm7.654.614a.594.594,0,0,1-.051.283c-.034.06-.133.09-.3.09h-.553a.49.49,0,0,1-.353-.09.519.519,0,0,1-.083-.347V17.42q-.514.835-.791,1.291c-.185.3-.318.527-.4.668s-.137.225-.155.25a.13.13,0,0,0-.025.052c-.077.128-.131.212-.16.25a.229.229,0,0,1-.187.058h-.205a.3.3,0,0,1-.218-.058,1.542,1.542,0,0,1-.154-.25l-1.31-2.234v4.547a.51.51,0,0,1-.058.264q-.058.1-.3.1h-.539a.793.793,0,0,1-.315-.058c-.09-.038-.135-.164-.135-.379V15.752a.448.448,0,0,1,.1-.34.41.41,0,0,1,.276-.083h.642a.64.64,0,0,1,.238.038.492.492,0,0,1,.2.193l1.708,2.723,1.708-2.7a.466.466,0,0,1,.187-.2.448.448,0,0,1,.212-.058h.707c.163,0,.256.034.283.1a1.038,1.038,0,0,1,.038.334Zm5.882-.614a1.733,1.733,0,0,1-.617.628,2.677,2.677,0,0,1-.88.328,5.366,5.366,0,0,1-1.008.1,5.913,5.913,0,0,1-1.4-.135,2.492,2.492,0,0,1-.744-.276c-.034-.034-.047-.113-.039-.238a2.435,2.435,0,0,1,.058-.385,1.742,1.742,0,0,1,.115-.353c.047-.1.091-.15.135-.141q.334.116.725.225a3.784,3.784,0,0,0,1,.109,2.707,2.707,0,0,0,1.047-.18.647.647,0,0,0,.431-.642.825.825,0,0,0-.283-.649,3.531,3.531,0,0,0-1.015-.532,7.283,7.283,0,0,1-.751-.341,2.874,2.874,0,0,1-.623-.437,1.809,1.809,0,0,1-.423-.6,2,2,0,0,1-.155-.822,1.861,1.861,0,0,1,.148-.732,1.54,1.54,0,0,1,.456-.6,2.314,2.314,0,0,1,.79-.4,3.948,3.948,0,0,1,1.15-.148q.437,0,.725.019a4.778,4.778,0,0,1,.476.052,2.163,2.163,0,0,1,.3.071c.077.025.15.047.219.064s.09.1.09.225a1.691,1.691,0,0,1-.052.4,1.476,1.476,0,0,1-.14.372q-.09.161-.18.135c-.145-.043-.345-.09-.6-.141a3.683,3.683,0,0,0-.738-.077,1.78,1.78,0,0,0-1.008.205.653.653,0,0,0-.277.552.7.7,0,0,0,.309.6,3.926,3.926,0,0,0,.963.456,4.164,4.164,0,0,1,1.535.944,1.9,1.9,0,0,1,.495,1.342A1.978,1.978,0,0,1,23.967,21.365Z" transform="translate(354 311.167)" fill="#fff"/>
  </g>
</svg>
